<svg width="127" height="127" viewBox="0 0 127 127" fill="none" xmlns="http://www.w3.org/2000/svg">
<g clip-path="url(#clip0_634_1595)">
<path d="M98.8174 91.8008C98.8174 95.4102 95.8643 98.3633 92.2549 98.3633H35.3799C31.7705 98.3633 28.8174 95.4102 28.8174 91.8008V34.9258C28.8174 31.3164 31.7705 28.3633 35.3799 28.3633H92.2549C95.8643 28.3633 98.8174 31.3164 98.8174 34.9258V91.8008Z" fill="#F4D6B0"/>
<path d="M35.3799 28.3633C31.7705 28.3633 28.8174 31.3164 28.8174 34.9258V91.8008C28.8174 95.4102 31.7705 98.3633 35.3799 98.3633H63.8174V28.3633H35.3799Z" fill="#F8AD89"/>
<path d="M90.0674 43.6758H83.5049V37.1133H90.0674V43.6758ZM70.3799 37.1133H35.3799V43.6758H70.3799V37.1133ZM90.0674 52.4258H83.5049V58.9883H90.0674V52.4258ZM70.3799 52.4258H35.3799V58.9883H70.3799V52.4258ZM90.0674 67.7383H83.5049V74.3008H90.0674V67.7383ZM70.3799 67.7383H35.3799V74.3008H70.3799V67.7383ZM90.0674 83.0508H83.5049V89.6133H90.0674V83.0508ZM70.3799 83.0508H35.3799V89.6133H70.3799V83.0508Z" fill="#01A59C"/>
</g>
<defs>
<clipPath id="clip0_634_1595">
<rect width="70" height="70" fill="white" transform="translate(28.8174 28.3633)"/>
</clipPath>
</defs>
</svg>
